<svg id="_x31__x2C_5" enable-background="new 0 0 36 36" height="512" viewBox="0 0 36 36" width="512" xmlns="http://www.w3.org/2000/svg"><g><path d="m27.623 4.167c-6.917 0-11.667-3.583-15-3.583s-10.333 1.916-10.333 17.249 9.417 17.583 13.083 17.583c17.167.001 24.5-31.249 12.25-31.249z" fill="#efefef"/></g><g><path d="m31.5 12c-.827 0-1.5-.673-1.5-1.5s.673-1.5 1.5-1.5 1.5.673 1.5 1.5-.673 1.5-1.5 1.5zm0-2c-.276 0-.5.224-.5.5s.224.5.5.5.5-.224.5-.5-.224-.5-.5-.5z" fill="#a4afc1"/></g><g><path d="m24.25 25.25h-15.5c-1.105 0-2-.895-2-2v-12.25h19.5v12.25c0 1.105-.895 2-2 2z" fill="#f3f3f1"/></g><g><path d="m26.25 11h-19.5v-1.5c0-1.105.895-2 2-2h15.5c1.105 0 2 .895 2 2z" fill="#2fdf84"/></g><g><path d="m11 7.5h-2.25c-1.105 0-2 .895-2 2v1.5h2.25v-1.5c0-1.105.895-2 2-2z" fill="#00b871"/></g><g><path d="m9 23.25v-12.25h-2.25v12.25c0 1.105.895 2 2 2h2.25c-1.105 0-2-.895-2-2z" fill="#d5dbe1"/></g><g><path d="m25.75 22h1.5v7h-1.5z"/></g><g><path d="m23 24.75h7v1.5h-7z"/></g><g><path d="m21 26h-12.25c-1.517 0-2.75-1.233-2.75-2.75v-13.5c0-1.517 1.233-2.75 2.75-2.75h15.5c1.517 0 2.75 1.233 2.75 2.75v10.25h-1.5v-10.25c0-.689-.561-1.25-1.25-1.25h-15.5c-.689 0-1.25.561-1.25 1.25v13.5c0 .689.561 1.25 1.25 1.25h12.25z"/></g><g><path d="m6.75 10.5h19.5v1.5h-19.5z"/></g></svg>
